{"title":"Brick Mansions 2014 720p Esub BluRay Dual Audio English Hindi GO","magnet":"magnet:?xt=urn:btih:154f4c603681a1b957bafe88f8c04b84f425f795&dn=Brick+Mansions+2014+720p+Esub+BluRay+Dual+Audio+English+Hindi+GO&tr=udp%3A%2F%2Ftracker.leechers-paradise.org%3A6969&tr=udp%3A%2F%2Fzer0day.ch%3A1337&tr=udp%3A%2F%2Fopen.demonii.com%3A1337&tr=udp%3A%2F%2Ftracker.coppersurfer.tk%3A6969&tr=udp%3A%2F%2Fexodus.desync.com%3A6969","uploader":"jatt13","categoryP":"video","categoryS":"movies","size":"786290774","seeders":"1","leechers":"13","description":"Unique ID                      : 1964427097186257013.........\r\nComplete name                  : F:DUB2014Brick Mansions 2014 720p Esub BluRay Dual Audio English Hindi GOPISAHI\r\nFormat                         : Matroska\r\nFormat version                 : Version 4 / Version 2\r\nFile size                      : 750 MiB\r\nDuration                       : 1 h 30 min\r\nOverall bit rate               : 1 162 kb/s\r\nMovie name                     : Brick Mansions 2014\r\n\r\nVideo\r\nFormat                         : AVC\r\nCodec ID                       : V_MPEG4/ISO/AVC\r\nDuration                       : 1 h 30 min\r\nBit rate                       : 986 kb/s\r\nWidth                          : 1 280 pixels\r\nHeight                         : 536 pixels\r\nDisplay aspect ratio           : 2.40:1\r\nFrame rate mode                : Constant\r\nFrame rate                     : 24.000 FPS\r\nStream size                    : 636 MiB (85%)\r\nWriting library                : x264 core 142 r2409 d6b4e63\r\n\r\nAudio #1\r\nFormat                         : AAC\r\nDuration                       : 1 h 30 min\r\nBit rate                       : 88.9 kb/s\r\nChannel(s)                     : 6 channels\r\nChannel positions              : Front: L C R, Side: L R, LFE\r\nSampling rate                  : 44.1 kHz\r\nFrame rate                     : 43.066 FPS (1024 SPF)\r\nStream size                    : 57.4 MiB (8%)\r\nLanguage                       : Hindi\r\n\r\nAudio #2\r\nFormat                         : AAC\r\nDuration                       : 1 h 30 min\r\nBit rate                       : 85.2 kb/s\r\nChannel(s)                     : 6 channels\r\nChannel positions              : Front: L C R, Side: L R, LFE\r\nSampling rate                  : 44.1 kHz\r\nFrame rate                     : 43.066 FPS (1024 SPF)\r\nStream size                    : 54.9 MiB (7%)\r\nLanguage                       : English\r\n\r\nText\r\nFormat                         : UTF-8\r\nCodec ID                       : S_TEXT/UTF8\r\nCodec ID/Info                  : UTF-8 Plain Text\r\nDuration                       : 1 h 23 min\r\nStream size                    : 29.4 KiB (0%)\r\nLanguage                       : English\r\n[img]http://i.imgur.com/DaQdKKh.jpg[/img]\r\n[img]http://i.imgur.com/5bf7RGn.jpg[/img]\r\n[img]http://i.imgur.com/Dur4WEf.jpg[/img]\r\n[img]http://i.imgur.com/GtAuixk.jpg[/img][/center]","last_updated":"2017-08-19T12:01:29.065Z","parsed":{"xt":"urn:btih:154f4c603681a1b957bafe88f8c04b84f425f795","dn":"Brick Mansions 2014 720p Esub BluRay Dual Audio English Hindi GO","tr":["udp://exodus.desync.com:6969","udp://open.demonii.com:1337","udp://tracker.coppersurfer.tk:6969","udp://tracker.leechers-paradise.org:6969","udp://zer0day.ch:1337"],"infoHash":"154f4c603681a1b957bafe88f8c04b84f425f795","infoHashBuffer":{"type":"Buffer","data":[21,79,76,96,54,129,161,185,87,186,254,136,248,192,75,132,244,37,247,149]},"name":"Brick Mansions 2014 720p Esub BluRay Dual Audio English Hindi GO","announce":["udp://exodus.desync.com:6969","udp://open.demonii.com:1337","udp://tracker.coppersurfer.tk:6969","udp://tracker.leechers-paradise.org:6969","udp://zer0day.ch:1337"],"urlList":[]}}